<svg width="42" height="41" viewBox="0 0 42 41" fill="none" xmlns="http://www.w3.org/2000/svg">
<path d="M12.9259 12.5901C16.9991 8.53563 24.6331 9.37711 31.1656 14.1711C32.1647 10.0656 31.5498 6.18965 29.0393 3.69069C24.3257 -1.00126 14.7959 0.86022 7.77672 7.84713C0.757496 14.834 -1.11259 24.3199 3.60105 29.0119C6.21404 31.6128 10.3385 32.1993 14.6679 31.0008C9.69804 24.4474 8.80142 16.6955 12.9259 12.5901Z" stroke="#00284F" stroke-miterlimit="10" stroke-linejoin="round"/>
<path d="M14.6938 31.0004C15.4111 31.9439 16.2309 32.8619 17.1019 33.7544C24.1211 40.7413 33.6509 42.6028 38.3645 37.9109C43.0781 33.2189 41.2081 23.733 34.1888 16.7461C33.2154 15.7771 32.2163 14.9356 31.166 14.1706" stroke="#00284F" stroke-miterlimit="10" stroke-linejoin="round"/>
<path d="M31.1656 14.1714C24.6331 9.37746 16.9991 8.53597 12.9259 12.5904C8.80146 16.6959 9.69807 24.4478 14.6935 31.0012" stroke="#00284F" stroke-miterlimit="10" stroke-linejoin="round"/>
</svg>
